<svg xmlns:dc="http://purl.org/dc/elements/1.1/" xmlns:cc="http://creativecommons.org/ns#" xmlns:rdf="http://www.w3.org/1999/02/22-rdf-syntax-ns#" xmlns:svg="http://www.w3.org/2000/svg" xmlns="http://www.w3.org/2000/svg" xmlns:sodipodi="http://sodipodi.sourceforge.net/DTD/sodipodi-0.dtd" xmlns:inkscape="http://www.inkscape.org/namespaces/inkscape" version="1.1" x="0px" y="0px" viewBox="0 0 32 40"><g transform="translate(0,-1020.3622)"><g transform="translate(-1.5,-2.5)"><path style="color:#000000;font-style:normal;font-variant:normal;font-weight:normal;font-stretch:normal;font-size:medium;line-height:normal;font-family:sans-serif;text-indent:0;text-align:start;text-decoration:none;text-decoration-line:none;text-decoration-style:solid;text-decoration-color:#000000;letter-spacing:normal;word-spacing:normal;text-transform:none;direction:ltr;block-progression:tb;writing-mode:lr-tb;baseline-shift:baseline;text-anchor:start;white-space:normal;clip-rule:nonzero;display:inline;overflow:visible;visibility:visible;opacity:1;isolation:auto;mix-blend-mode:normal;color-interpolation:sRGB;color-interpolation-filters:linearRGB;solid-color:#000000;solid-opacity:1;fill:#000000;fill-opacity:1;fill-rule:nonzero;stroke:none;stroke-width:0.99999994;stroke-linecap:butt;stroke-linejoin:miter;stroke-miterlimit:4;stroke-dasharray:none;stroke-dashoffset:0;stroke-opacity:1;color-rendering:auto;image-rendering:auto;shape-rendering:auto;text-rendering:auto;enable-background:accumulate" d="m 9.7094579,1026.7513 c -0.380751,0.01 -0.761351,0.1561 -1.048828,0.4434 l -2.828125,2.8281 c -0.574927,0.575 -0.598175,1.5249 -0.023437,2.0996 l 7.8281251,7.8262 -5.6367191,5.6367 c -0.19521,0.1952 -0.195239,0.5118 0,0.7071 l 2.1210941,2.121 c 0.194988,0.1957 0.511871,0.1951 0.707031,0 l 5.636719,-5.6367 7.777343,7.7774 c 0.574735,0.5748 1.52075,0.5516 2.095703,-0.024 l 2.828126,-2.83 c 0.574926,-0.575 0.600123,-1.521 0.02539,-2.0957 l -7.777344,-7.7774 3.556641,-3.5566 c 0.05958,-0.059 0.103084,-0.1324 0.126953,-0.2129 l 1.921875,-3.7696 c 0.06872,-0.1261 0.118795,-0.2595 0.126953,-0.4179 0.0082,-0.1609 -0.04165,-0.3678 -0.189453,-0.5156 -0.147866,-0.1477 -0.35647,-0.1926 -0.515625,-0.1875 -0.161177,0.01 -0.296085,0.061 -0.423828,0.1308 l -0.345703,0.1895 -3.296875,1.8242 c -0.08837,0.022 -0.169941,0.067 -0.234375,0.1308 l -3.554688,3.5567 -7.828125,-7.8281 c -0.287367,-0.2874 -0.668077,-0.4258 -1.0488281,-0.42 z m 0.011719,0.9922 c 0.122139,0 0.239287,0.044 0.3300781,0.1348 l 18.433594,18.4336 c 0.18166,0.1817 0.183171,0.4731 -0.02539,0.6816 l -2.828125,2.8281 c -0.208537,0.2086 -0.499979,0.207 -0.68164,0.025 l -0.378907,-0.3789 0.707032,-0.707 -0.707032,-0.707 -0.707031,0.707 -0.707031,-0.707 1.414062,-1.4141 -0.707031,-0.707 -1.414062,1.414 -0.707032,-0.707 0.707032,-0.707 -0.707032,-0.7071 -0.707031,0.7071 -0.707031,-0.7071 1.414062,-1.414 -0.707031,-0.707 -1.414062,1.414 -0.707032,-0.707 0.707032,-0.707 -0.707032,-0.7071 -0.707031,0.7071 -0.707031,-0.7071 1.414062,-1.414 -0.707031,-0.7071 -1.414062,1.4141 -0.707032,-0.707 0.707032,-0.7071 -0.707032,-0.707 -0.707031,0.707 -0.707031,-0.707 1.414062,-1.4141 -0.707031,-0.707 -1.414062,1.4141 -0.707032,-0.7071 0.707032,-0.707 -0.707032,-0.707 -0.707031,0.707 -0.707031,-0.707 1.414062,-1.4141 -0.707031,-0.707 -1.416015,1.414 -0.707032,-0.707 0.707032,-0.707 -0.707032,-0.7071 -0.7070311,0.7071 -0.707031,-0.7071 1.4140621,-1.416 -0.7070311,-0.707 -1.414063,1.4141 -0.707031,-0.7071 0.707031,-0.707 -0.707031,-0.707 -0.707031,0.707 -0.376953,-0.377 c -0.181307,-0.1813 -0.183891,-0.4732 0.023437,-0.6816 l 0,0 2.828125,-2.8282 c 0.104268,-0.1043 0.231377,-0.1556 0.353516,-0.1582 z m 16.0214841,2.8496 -1.265625,2.4766 -1.144531,-1.1445 2.410156,-1.3321 z m -3.248047,1.9102 1.416016,1.4141 -3.203125,3.2031 -1.416015,-1.4141 3.203124,-3.2031 z m -8.152343,8.1523 1.416015,1.4141 -3.86914,3.8691 -1.414063,-1.416 3.867188,-3.8672 z m -4.5742191,4.5743 1.4140621,1.416 -0.707031,0.707 -1.4140621,-1.4141 0.707031,-0.7089 z"/></g></g><text x="0" y="47" fill="#000000" font-size="5px" font-weight="bold" font-family="'Helvetica Neue', Helvetica, Arial-Unicode, Arial, Sans-serif">Created by Chameleon Design</text><text x="0" y="52" fill="#000000" font-size="5px" font-weight="bold" font-family="'Helvetica Neue', Helvetica, Arial-Unicode, Arial, Sans-serif">from the Noun Project</text></svg>