<svg xmlns="http://www.w3.org/2000/svg" xmlns:xlink="http://www.w3.org/1999/xlink" version="1.1" x="0px" y="0px" viewBox="0 0 512 640" style="enable-background:new 0 0 512 512;" xml:space="preserve"><g><path d="M447.4,10.9H146.8c-3.3,0-6,2.7-6,6v37.3h-34.7c-3.3,0-6,2.7-6,6v37.3H65.3c-3.3,0-6,2.7-6,6v392.3c0,3.3,2.7,6,6,6h300.5   c3.3,0,6-2.7,6-6v-37.3h34.7c3.3,0,6-2.7,6-6v-37.3h34.8c3.3,0,6-2.7,6-6V16.9C453.4,13.6,450.7,10.9,447.4,10.9z M359.9,489.8   H71.3V109.5h34.7h175.6v72.2c0,3.3,2.7,6,6,6h72.2v264.8L359.9,489.8L359.9,489.8z M322.9,147.2l28.5,28.5h-57.7V118L322.9,147.2z    M400.6,446.5h-28.7V181.7c0-0.1,0-0.1,0-0.2c0-0.1,0-0.1,0-0.2c0-0.3,0-0.5-0.1-0.8c0,0,0,0,0,0c-0.1-0.3-0.1-0.5-0.2-0.7   c0-0.1,0-0.1-0.1-0.2c-0.1-0.2-0.2-0.5-0.3-0.7c0,0,0,0,0,0c-0.1-0.2-0.3-0.4-0.4-0.7c0-0.1-0.1-0.1-0.1-0.2   c-0.2-0.2-0.3-0.4-0.5-0.6l-78.2-78.2c-0.2-0.2-0.4-0.4-0.6-0.5c-0.1,0-0.1-0.1-0.2-0.1c-0.2-0.2-0.4-0.3-0.7-0.4c0,0,0,0,0,0   c-0.2-0.1-0.4-0.2-0.7-0.3c-0.1,0-0.1,0-0.2-0.1c-0.2-0.1-0.5-0.2-0.7-0.2c0,0,0,0,0,0c-0.2,0-0.5-0.1-0.7-0.1c-0.1,0-0.1,0-0.2,0   c-0.1,0-0.1,0-0.2,0H112.1V66.2h34.7h253.8v342.9L400.6,446.5L400.6,446.5z M441.4,403.2h-28.8V60.2c0-3.3-2.7-6-6-6H152.8V22.9   h288.6V403.2z"/><path d="M104.3,169.3h149c3.3,0,6-2.7,6-6s-2.7-6-6-6h-149c-3.3,0-6,2.7-6,6S101,169.3,104.3,169.3z"/><path d="M320.8,210.7H104.3c-3.3,0-6,2.7-6,6s2.7,6,6,6h216.5c3.3,0,6-2.7,6-6S324.1,210.7,320.8,210.7z"/><path d="M320.8,264.2H104.3c-3.3,0-6,2.7-6,6s2.7,6,6,6h216.5c3.3,0,6-2.7,6-6S324.1,264.2,320.8,264.2z"/><path d="M320.8,317.7H104.3c-3.3,0-6,2.7-6,6s2.7,6,6,6h216.5c3.3,0,6-2.7,6-6S324.1,317.7,320.8,317.7z"/><path d="M320.8,371.2H104.3c-3.3,0-6,2.7-6,6s2.7,6,6,6h216.5c3.3,0,6-2.7,6-6S324.1,371.2,320.8,371.2z"/><path d="M320.8,424.7H104.3c-3.3,0-6,2.7-6,6s2.7,6,6,6h216.5c3.3,0,6-2.7,6-6S324.1,424.7,320.8,424.7z"/></g><text x="0" y="527" fill="#000000" font-size="5px" font-weight="bold" font-family="'Helvetica Neue', Helvetica, Arial-Unicode, Arial, Sans-serif">Created by ibrandify</text><text x="0" y="532" fill="#000000" font-size="5px" font-weight="bold" font-family="'Helvetica Neue', Helvetica, Arial-Unicode, Arial, Sans-serif">from the Noun Project</text></svg>