<svg xmlns="http://www.w3.org/2000/svg" xmlns:xlink="http://www.w3.org/1999/xlink" xml:space="preserve" version="1.1" style="shape-rendering:geometricPrecision;text-rendering:geometricPrecision;image-rendering:optimizeQuality;" viewBox="0 0 333 416.25" x="0px" y="0px" fill-rule="evenodd" clip-rule="evenodd"><defs><style type="text/css">
   
    .fil0 {fill:black}
   
  </style></defs><g><path class="fil0" d="M77 226c14,0 26,6 33,17l22 -31c-5,-7 -11,-14 -16,-22l0 -93 51 68 93 -126c5,32 -18,126 -59,173l23 31c22,-34 81,-13 91,32 5,28 -12,50 -39,50 -21,0 -42,-14 -52,-34l-38 -53c-4,0 -34,0 -38,0l-39 53c-10,20 -31,34 -52,34 -27,0 -44,-22 -38,-50 5,-27 31,-49 58,-49zm90 -36c16,0 16,25 0,25 -17,0 -17,-25 0,-25zm-96 -182l33 0 0 41 -33 0 0 -41zm0 65l33 0 0 41 -33 0 0 -41zm0 65l33 0 0 41 -33 0 0 -41zm190 109c-36,0 -25,57 11,57 36,0 25,-57 -11,-57zm-188 0c35,0 24,57 -12,57 -36,0 -25,-57 12,-57z"/></g><text x="0" y="348" fill="#000000" font-size="5px" font-weight="bold" font-family="'Helvetica Neue', Helvetica, Arial-Unicode, Arial, Sans-serif">Created by JiKimz</text><text x="0" y="353" fill="#000000" font-size="5px" font-weight="bold" font-family="'Helvetica Neue', Helvetica, Arial-Unicode, Arial, Sans-serif">from the Noun Project</text></svg>