<svg xmlns="http://www.w3.org/2000/svg" xmlns:xlink="http://www.w3.org/1999/xlink" version="1.1" x="0px" y="0px" viewBox="0 0 32 40" enable-background="new 0 0 32 32" xml:space="preserve"><g><path d="M16,2c-3.9,0-7,3.1-7,7v3c-1.7,0-3,1.3-3,3v5c0,5.5,4.5,10,10,10s10-4.5,10-10v-5c0-1.7-1.3-3-3-3V9C23,5.1,19.9,2,16,2z    M24,15v5c0,4.4-3.6,8-8,8s-8-3.6-8-8v-5c0-0.6,0.4-1,1-1h14C23.6,14,24,14.4,24,15z M11,12V9c0-2.8,2.2-5,5-5s5,2.2,5,5v3H11z"/><path d="M16,18c-0.6,0-1,0.4-1,1v2c0,0.6,0.4,1,1,1s1-0.4,1-1v-2C17,18.4,16.6,18,16,18z"/></g><text x="0" y="47" fill="#000000" font-size="5px" font-weight="bold" font-family="'Helvetica Neue', Helvetica, Arial-Unicode, Arial, Sans-serif">Created by Mask Icon</text><text x="0" y="52" fill="#000000" font-size="5px" font-weight="bold" font-family="'Helvetica Neue', Helvetica, Arial-Unicode, Arial, Sans-serif">from the Noun Project</text></svg>